# xmcd
#
# Track frame offsets:
#	150
#	19038
#	38923
#	61269
#	78810
#	102753
#	122283
#	142668
#	164929
#	184930
#	208751
#	239908
#	259680
#	276699
#	303862
#	325691
#
# Disc length: 4783 seconds
#
# Revision: 0
# Processed by: cddbd v1.5.2PL0 Copyright (c) Steve Scherf et al.
# Submitted via: EasyCDDAExtractor 9.0.0.1
#
DISCID=df12ad10
DTITLE=Sambary z rodzink¹ and Pó³ ¿artem pó³ serio - Bia³a linia przerywana
DYEAR=2002
DGENRE=Country
TTITLE0=Sambary
TTITLE1=Jagodzianki
TTITLE2=Biaa linia przerywana
TTITLE3=Kierowca jestem no i ju¿
TTITLE4=Twoja gitara
TTITLE5=Zegar przed lustrem
TTITLE6=Mój wóz
TTITLE7=Misiaczki
TTITLE8=Ksiê¿yc
TTITLE9=Rêce ju¿ przyros³y do fajery
TTITLE10=Gdyby nie CB
TTITLE11=Please Don't Cry - Dancing remix
TTITLE12=Jagodzianki - Disco Road remix
TTITLE13=Gdyby nie CD - Business Citi remix
TTITLE14=Ksiêzyc - Remix A'la Yello
TTITLE15=Please Dont Cry - Bed remix
EXTD=
EXTT0=
EXTT1=
EXTT2=
EXTT3=
EXTT4=
EXTT5=
EXTT6=
EXTT7=
EXTT8=
EXTT9=
EXTT10=
EXTT11=
EXTT12=
EXTT13=
EXTT14=
EXTT15=
PLAYORDER=
